<svg width="24" height="24" viewBox="0 0 24 24" fill="none" xmlns="http://www.w3.org/2000/svg">
<path d="M17.55 2.17401C15.922 1.51701 14.462 1.50601 13.202 1.97101C11.964 2.42701 11.022 3.30301 10.329 4.24201C9.84403 4.90001 9.54302 5.63901 9.29402 6.24901L9.18403 6.51901C8.89403 7.21401 8.62303 7.76501 8.16003 8.22701C7.70403 8.68301 7.15703 8.95401 6.46003 9.24501L6.18903 9.35801C5.57803 9.60801 4.83903 9.91101 4.17903 10.393C3.21803 11.096 2.32703 12.041 1.87003 13.283C1.40503 14.549 1.43303 16.007 2.11003 17.629C3.28803 20.446 6.09803 22.075 9.19502 22.319C12.308 22.565 15.805 21.435 18.587 18.654C21.533 15.707 22.692 12.197 22.402 9.09601C22.112 6.00601 20.367 3.31001 17.55 2.17401ZM6.76803 11.034C6.70035 10.9665 6.63594 10.8957 6.57503 10.822L6.73903 10.754L7.04003 10.63C7.76303 10.327 8.54502 9.96401 9.22102 9.28801C9.90403 8.60501 10.267 7.82001 10.568 7.09601L10.691 6.79701L10.78 6.58301C10.86 6.64768 10.9367 6.71701 11.01 6.79101C11.2924 7.06872 11.5169 7.39958 11.6707 7.7645C11.8246 8.12943 11.9046 8.5212 11.9063 8.91722C11.9079 9.31324 11.8312 9.70566 11.6804 10.0719C11.5296 10.4381 11.3079 10.7708 11.0279 11.0509C10.7479 11.3309 10.4152 11.5528 10.049 11.7036C9.68287 11.8545 9.29046 11.9313 8.89444 11.9298C8.49842 11.9282 8.10663 11.8482 7.74167 11.6945C7.37671 11.5408 7.0458 11.3163 6.76803 11.034Z" fill="#FFA629"/>
</svg>
